<?xml version="1.0" encoding="UTF-8" standalone="no"?><!DOCTYPE svg PUBLIC "-//W3C//DTD SVG 1.1//EN" "http://www.w3.org/Graphics/SVG/1.1/DTD/svg11.dtd"><svg width="100%" height="100%" viewBox="0 0 87 88" version="1.1" xmlns="http://www.w3.org/2000/svg" xmlns:xlink="http://www.w3.org/1999/xlink" xml:space="preserve" xmlns:serif="http://www.serif.com/" style="fill-rule:evenodd;clip-rule:evenodd;stroke-linejoin:round;stroke-miterlimit:2;"><g id="Quartermania_x5F_Records"><path d="M30.333,2.029c11.346,-3.713 24.196,-2.242 34.512,3.721c6.946,4.075 12.808,10.029 16.621,17.133c7.95,14.367 6.708,33.233 -2.996,46.467c-0.933,0.942 -1.521,2.4 -2.917,2.737c-6.771,2.567 -14.167,0.254 -20.425,-2.662c7.092,-2.987 12.529,-9.462 14.9,-16.725c3.733,-11.046 0.029,-24.392 -9.458,-31.375c-9.7,-7.833 -24.517,-7.808 -34.337,-0.204c-9.642,6.771 -13.408,20.163 -9.858,31.221c1.938,6.237 6.042,11.867 11.629,15.312c-2.267,1.121 -4.717,1.883 -6.763,3.438c1.529,2.504 3.367,4.812 4.992,7.262c6.225,-4.438 14.4,-4.413 21.433,-2.15c5.362,1.713 10.404,4.475 16.021,5.337c0.229,0.075 0.779,0 0.529,0.383c-15.575,8.996 -36.667,6.588 -49.833,-5.658c-2.617,-2.271 -4.75,-5.021 -6.817,-7.779c-10.008,-14.354 -10.15,-34.946 -0.058,-49.296c5.362,-8.087 13.492,-14.387 22.825,-17.162Z" style="fill:#7fdb0d;fill-rule:nonzero;"/><path d="M41.763,26.842c10.108,-1.262 19.396,8.329 18.237,18.354c-0.529,5.188 -3.383,10.2 -7.917,12.888c-4.9,3.121 -11.438,3.346 -16.575,0.679c-5.533,-3.129 -9.433,-9.408 -9.038,-15.858c0.267,-8.083 7.158,-15.479 15.292,-16.063Z" style="fill:#7fdb0d;fill-rule:nonzero;"/></g></svg>